<svg width="20" height="16" viewBox="0 0 20 16" fill="none" xmlns="http://www.w3.org/2000/svg">
<path d="M18.8333 15.7204C16.5185 15.7204 14.227 15.3274 11.9589 14.5414C9.69074 13.7553 7.63037 12.6345 5.77778 11.1789C3.92593 9.72335 2.5 8.10765 1.5 6.33182C0.5 4.556 0 2.75107 0 0.917023V0H6.55556L7.58333 4.38861L4.41667 6.8995C4.82407 7.46719 5.27778 8.00576 5.77778 8.51521C6.27778 9.02467 6.81481 9.49774 7.38889 9.93441C7.92593 10.3565 8.51407 10.7606 9.15333 11.1466C9.79259 11.5327 10.4822 11.8928 11.2222 12.227L14.4444 9.69424L20 10.5894V15.7204H18.8333Z" fill="#438C01"/>
</svg>
