<svg width="30" height="22" viewBox="0 0 30 22" fill="none" xmlns="http://www.w3.org/2000/svg">
<path d="M27.7376 0.333338C27.6165 0.320853 27.4943 0.320853 27.3732 0.333338H2.48429C2.32478 0.335796 2.16632 0.359714 2.01318 0.404449L14.8576 13.1956L27.7376 0.333338Z" fill="#438C01"/>
<path d="M29.0531 1.56891L16.1109 14.4578C15.7778 14.7889 15.3272 14.9748 14.8576 14.9748C14.3879 14.9748 13.9373 14.7889 13.6042 14.4578L0.777554 1.66669C0.738123 1.81161 0.717215 1.96095 0.715332 2.11113V19.8889C0.715332 20.3604 0.902633 20.8126 1.23603 21.146C1.56943 21.4794 2.02161 21.6667 2.49311 21.6667H27.382C27.8535 21.6667 28.3057 21.4794 28.6391 21.146C28.9725 20.8126 29.1598 20.3604 29.1598 19.8889V2.11113C29.1527 1.92594 29.1167 1.74298 29.0531 1.56891ZM3.71089 19.8889H2.47533V18.6178L8.93755 12.2089L10.1909 13.4622L3.71089 19.8889ZM27.3642 19.8889H26.1198L19.6398 13.4622L20.8931 12.2089L27.3553 18.6178L27.3642 19.8889Z" fill="#438C01"/>
</svg>
