<svg width="20" height="26" viewBox="0 0 20 26" fill="none" xmlns="http://www.w3.org/2000/svg">
<path d="M10 25.1526C10 25.1526 0 13.6705 0 8.80342C-1.95685e-08 7.64734 0.258658 6.50258 0.761205 5.4345C1.26375 4.36642 2.00035 3.39593 2.92893 2.57846C3.85752 1.76099 4.95991 1.11253 6.17317 0.67012C7.38642 0.227707 8.68678 0 10 0C11.3132 0 12.6136 0.227707 13.8268 0.67012C15.0401 1.11253 16.1425 1.76099 17.0711 2.57846C17.9997 3.39593 18.7362 4.36642 19.2388 5.4345C19.7413 6.50258 20 7.64734 20 8.80342C20 13.6705 10 25.1526 10 25.1526ZM10 11.3187C10.7578 11.3187 11.4845 11.0537 12.0203 10.582C12.5561 10.1103 12.8571 9.47051 12.8571 8.80342C12.8571 8.13633 12.5561 7.49656 12.0203 7.02486C11.4845 6.55316 10.7578 6.28816 10 6.28816C9.24224 6.28816 8.51551 6.55316 7.9797 7.02486C7.44388 7.49656 7.14286 8.13633 7.14286 8.80342C7.14286 9.47051 7.44388 10.1103 7.9797 10.582C8.51551 11.0537 9.24224 11.3187 10 11.3187Z" fill="#438C01"/>
</svg>
